<?xml version="1.0" encoding="utf-8"?>
<!-- Generator: Adobe Illustrator 24.0.1, SVG Export Plug-In . SVG Version: 6.00 Build 0)  -->
<svg version="1.1" xmlns="http://www.w3.org/2000/svg" xmlns:xlink="http://www.w3.org/1999/xlink" x="0px" y="0px"
	 viewBox="0 0 1378 557" style="enable-background:new 0 0 1378 557;" xml:space="preserve">
<style type="text/css">
	.st0{fill:#050006;}
	.st1{fill:none;stroke:#222348;stroke-width:2;stroke-miterlimit:10;}
	.st2{fill:none;stroke:#32347D;stroke-width:4;stroke-miterlimit:10;}
	.st3{fill:none;stroke:#222348;stroke-width:4;stroke-miterlimit:10;}
</style>
<g id="Layer_1">
	<rect x="-21.4" y="0.1" class="st0" width="1420.8" height="563.73"/>
	<line class="st0" x1="39.75" y1="418.64" x2="138.96" y2="295.46"/>
	<path class="st0" d="M39.75,418.64"/>
	<path class="st0" d="M39.75,418.64"/>
	<path class="st0" d="M127.69,506.58"/>
</g>
<g id="Layer_3">
	<line class="st1" x1="82.31" y1="237.23" x2="-23.03" y2="131.9"/>
	<polyline class="st1" points="29.64,184.57 29.64,52.03 -21.84,0.55 	"/>
	<line class="st1" x1="181.43" y1="295.46" x2="29.14" y2="143.18"/>
	<line class="st1" x1="3.9" y1="26.29" x2="3.9" y2="-3.34"/>
</g>
<g id="Layer_2">
	<polyline class="st2" points="1399.4,295.46 768.93,295.46 768.93,230.73 655.63,117.43 655.63,63.6 580.51,63.6 580.51,-2.33 	"/>
	<polyline class="st2" points="876.6,295.46 876.6,373.57 803.45,446.73 703.69,446.73 646.87,389.91 600.17,389.91 600.17,308.8 
		634.72,308.73 634.87,257.1 600.17,257.1 600.17,195.45 667.6,195.45 667.6,257.1 634.87,257.1 	"/>
	<polyline class="st2" points="600.17,224.66 483.35,224.66 483.35,142.25 408.75,67.64 484.22,67.64 484.22,-2.33 	"/>
	<line class="st2" x1="-21.4" y1="339.04" x2="-24.12" y2="341.77"/>
	<polyline class="st2" points="600.17,350.44 535.4,350.44 535.4,291.45 396.6,291.45 317.66,370.39 228.31,370.39 228.31,295.46 
		138.96,295.46 82.31,238.81 27.06,238.81 27.06,290.58 -21.4,339.04 	"/>
	<line class="st2" x1="27.06" y1="238.81" x2="-21.4" y2="238.81"/>
	<polyline class="st2" points="455.59,291.45 409.83,245.69 288.02,245.69 240.28,197.95 240.28,146.56 184.64,90.93 184.64,51.6 
		251.3,51.6 251.23,-3.34 184.64,-3.34 184.64,51.6 	"/>
	<polyline class="st2" points="240.28,197.95 165.86,197.95 115.92,148.01 115.92,52.9 61.57,-1.45 	"/>
	<polyline class="st2" points="703.69,446.73 667.69,482.73 531.93,482.73 472.72,423.52 505.18,391.07 505.18,341.77 
		408.75,341.77 315.85,434.66 228.31,434.66 228.31,370.39 	"/>
	<polyline class="st2" points="768.93,230.73 879.15,120.51 968.55,120.51 1143.07,295.02 1317.28,120.8 1399.4,120.8 	"/>
	<polyline class="st2" points="968.55,120.51 968.55,68.22 898.36,-1.97 	"/>
	<polyline class="st2" points="1199.88,-0.78 1199.88,59.27 1143.07,59.27 1143.07,295.02 979.96,458.13 866.77,458.13 
		806.11,518.79 738.39,518.79 738.39,563.84 	"/>
	<path class="st2" d="M1043.5,195.45"/>
	<line class="st2" x1="1043.5" y1="195.45" x2="1043.5" y2="0.1"/>
	<polyline class="st2" points="738.39,537.81 466,537.81 403.54,475.36 271.69,475.36 271.69,506.58 127.69,506.58 39.75,418.64 
		-21.4,418.64 	"/>
	<line class="st2" x1="78.24" y1="457.14" x2="-22.76" y2="457.14"/>
	<line class="st2" x1="127.69" y1="506.58" x2="-21.4" y2="506.58"/>
	<polyline class="st2" points="228.31,434.66 181.43,387.77 181.43,295.46 	"/>
	<line class="st2" x1="181.43" y1="387.77" x2="-22.76" y2="387.77"/>
	<path class="st3" d="M204.87,291.45"/>
</g>
</svg>
